# xmcd
#
# Track frame offsets: 
#        150
#        18629
#        43788
#        60417
#        74922
#        78407
#        88641
#        104588
#        127031
#        130756
#        143491
#        163821
#        182453
#
# Disc length: 2725 seconds
#
# Revision: 2
# Processed by: cddbd v1.5.2PL0 Copyright (c) Steve Scherf et al.
# Submitted via: ExactAudioCopy v0.99pb5
#
DISCID=b70aa30d
DTITLE=Patent Ochsner - Liebi Tod and Tüüfu
DYEAR=2005
DGENRE=CH
TTITLE0=Grüens Liecht 
TTITLE1=Diener and Chnächt
TTITLE2=Früecher
TTITLE3=Villechlanisolasy
TTITLE4=Füdlifinger Fritz
TTITLE5=Vohinger and vovor
TTITLE6=Echo
TTITLE7=Heimat
TTITLE8=Heimatzini...
TTITLE9=Blues
TTITLE10=Schlächte Verlüürer
TTITLE11=Nonid and schonümm
TTITLE12=Füürwärch
EXTD=
EXTT0=
EXTT1=
EXTT2=
EXTT3=
EXTT4=
EXTT5=
EXTT6=
EXTT7=
EXTT8=
EXTT9=
EXTT10=
EXTT11=
EXTT12=
PLAYORDER=
